<svg xmlns="http://www.w3.org/2000/svg" viewBox="0 0 16 14.616">
  <path fill="var(--logo-color, #5828e2)" d="M15.62,10.38,10.447,1.413a2.628,2.628,0,0,0-.6-.71A1.561,1.561,0,0,0,9.645.539,1.2,1.2,0,0,0,9.409.384,2.019,2.019,0,0,0,9.08.22,2.325,2.325,0,0,0,8.73.1,2.823,2.823,0,0,0,7.27.1,2.325,2.325,0,0,0,6.92.22a2.019,2.019,0,0,0-.329.164,1.2,1.2,0,0,0-.236.155A1.561,1.561,0,0,0,6.149.7a2.485,2.485,0,0,0-.6.71L.38,10.38a2.827,2.827,0,0,0,4.9,2.828l1.264-2.191H9.46l1.265,2.191A2.827,2.827,0,0,0,15.62,10.38ZM3.5,12.179a.782.782,0,0,1-1.059.278.773.773,0,0,1-.278-1.049L7.332,2.441a.529.529,0,0,1,.061-.082.326.326,0,0,1,.1-.1.484.484,0,0,1,.124-.093.556.556,0,0,1,.174-.082A1.436,1.436,0,0,1,8,2.061a.7.7,0,0,1,.38.1.551.551,0,0,1,.124.093.5.5,0,0,1,.1.1.867.867,0,0,1,.133.277.747.747,0,0,1-.072.576Zm10.067.278a.782.782,0,0,1-1.059-.278l-1.415-2.45a1.543,1.543,0,0,0-1.335-.768H7.727l2.35-4.083,3.764,6.53A.773.773,0,0,1,13.563,12.457Z"/>
</svg>
